/* XPM */
static char *_c58cc5b4230403d9aacd14b492fe140TGumKj1aMredVnwr[] = {
/* columns rows colors chars-per-pixel */
"16 16 84 1 ",
"  c None",
". c black",
"X c #010100",
"o c #010101",
"O c #020202",
"+ c #030302",
"@ c #020203",
"# c gray1",
"$ c #040404",
"% c gray2",
"& c #070707",
"* c gray3",
"= c gray4",
"- c #0B0B0B",
"; c #0C0C0C",
": c #0D0D0C",
"> c gray5",
", c #0E0E0E",
"< c #0E0E0F",
"1 c gray6",
"2 c #101010",
"3 c #111111",
"4 c #121211",
"5 c gray7",
"6 c #131312",
"7 c #131313",
"8 c #141413",
"9 c gray8",
"0 c #151514",
"q c #161515",
"w c #161615",
"e c #171716",
"r c gray9",
"t c gray10",
"y c #1B1B1B",
"u c gray11",
"i c #1E1E1E",
"p c #222222",
"a c #232323",
"s c #252525",
"d c #252526",
"f c gray15",
"g c #272727",
"h c #282828",
"j c gray16",
"k c gray17",
"l c #2D2D2D",
"z c #2F2F2F",
"x c #323232",
"c c #343434",
"v c #353535",
"b c gray21",
"n c #373737",
"m c #393939",
"M c #3A3A3A",
"N c #3C3C3C",
"B c gray25",
"V c #434343",
"C c gray28",
"Z c #484848",
"A c gray29",
"S c #555555",
"D c #565655",
"F c gray35",
"G c gray38",
"H c #676767",
"J c #6C6C6C",
"K c gray46",
"L c gray47",
"P c #787879",
"I c gray52",
"U c #888888",
"Y c gray56",
"T c #939393",
"R c gray58",
"E c #9D9D9D",
"W c gray77",
"Q c #C6C6C6",
"! c #CBCBCB",
"~ c #D0D0D0",
"^ c #F3F3F3",
"/ c #F8F8F8",
"( c #FBFBFA",
") c white",
/* pixels */
"       zj       ",
"    y.pNn9.s    ",
"   2.&&..$&.2   ",
"  sy-299;>-&jz  ",
" Cy.....-....9B ",
" .&&HPK&.GJS&.. ",
"z.-.K))IA^(F.&. ",
"..>-.Q))!~Y.&22.",
"..>>#s))(Wi.>89.",
"M&&2>.E))I.->-. ",
" p&89.-))9.2&>2 ",
" As.9>.RR.99.zS ",
"  j-&>-..>8&sn  ",
"   ..-......&   ",
"    2>nxnz.i    ",
"      Bzc       "
};
