/* XPM */
static char *_805502ef62446a2a13d817a76b557c3EAOVd0YBgRw9EzcJ[] = {
/* columns rows colors chars-per-pixel */
"32 32 176 2 ",
"   c None",
".  c black",
"X  c #010101",
"o  c #020201",
"O  c #010102",
"+  c #020202",
"@  c #030302",
"#  c gray1",
"$  c #040404",
"%  c #040405",
"&  c gray2",
"*  c #050506",
"=  c #060606",
"-  c #060607",
";  c #060707",
":  c #070707",
">  c gray3",
",  c #080809",
"<  c #090809",
"1  c #090909",
"2  c #0A0A08",
"3  c #0A0A09",
"4  c #09090A",
"5  c #090A0A",
"6  c gray4",
"7  c #0A0A0B",
"8  c #0A0B0B",
"9  c #0B0B0B",
"0  c #0C0C0B",
"q  c #0B0B0C",
"w  c #0C0C0C",
"e  c gray5",
"r  c #0D0D0E",
"t  c #0E0E0E",
"y  c gray6",
"u  c #0F100F",
"i  c #10100F",
"p  c #101010",
"a  c #111010",
"s  c #111110",
"d  c #111111",
"f  c #121211",
"g  c gray7",
"h  c #131313",
"j  c #141413",
"k  c gray8",
"l  c #151514",
"z  c #151515",
"x  c #161615",
"c  c #161616",
"v  c #171616",
"b  c #171716",
"n  c gray9",
"m  c #181717",
"M  c #181817",
"N  c #191817",
"B  c #181818",
"V  c #191818",
"C  c #191918",
"Z  c #191919",
"A  c #1A1A19",
"S  c gray10",
"D  c #1B1A1A",
"F  c #1B1B1A",
"G  c #1B1B1B",
"H  c #1C1B1A",
"J  c #1C1C1B",
"K  c #1D1C1B",
"L  c gray11",
"P  c #1D1D1C",
"I  c #1E1E1C",
"U  c #1F1F1D",
"Y  c #1E1E1E",
"T  c #1F1F1E",
"R  c gray12",
"E  c gray13",
"W  c #222220",
"Q  c #232322",
"!  c #232323",
"~  c gray14",
"^  c gray15",
"/  c #272727",
"(  c #282826",
")  c #282828",
"_  c #2A2A28",
"`  c #2A2A2A",
"'  c gray17",
"]  c gray18",
"[  c gray19",
"{  c #323232",
"}  c gray20",
"|  c #353535",
" . c #373737",
".. c gray22",
"X. c #393939",
"o. c gray23",
"O. c gray24",
"+. c #3F3F3F",
"@. c #414141",
"#. c #444443",
"$. c gray27",
"%. c #464646",
"&. c gray28",
"*. c #484848",
"=. c gray29",
"-. c #4B4B4B",
";. c #4C4C4C",
":. c gray31",
">. c #505050",
",. c #515151",
"<. c #535353",
"1. c #555555",
"2. c gray34",
"3. c #585858",
"4. c gray35",
"5. c #5A5A5A",
"6. c #5B5B5B",
"7. c #5D5D5D",
"8. c gray37",
"9. c #5F5F5F",
"0. c gray40",
"q. c #676767",
"w. c #686868",
"e. c DimGray",
"r. c #6A6A6A",
"t. c gray42",
"y. c #6D6D6D",
"u. c #6F6F6F",
"i. c gray45",
"p. c #747474",
"a. c gray46",
"s. c #767676",
"d. c #777777",
"f. c gray47",
"g. c gray50",
"h. c #807F7F",
"j. c gray51",
"k. c #848484",
"l. c gray52",
"z. c #888888",
"x. c #8A8A89",
"c. c gray58",
"v. c #959595",
"b. c #979797",
"n. c gray61",
"m. c gray64",
"M. c #A4A4A4",
"N. c #A5A5A5",
"B. c #A9A9A9",
"V. c gray68",
"C. c #AFAFAF",
"Z. c #B2B2B2",
"A. c gray71",
"S. c #B7B7B7",
"D. c #B9B9B9",
"F. c gray73",
"G. c gray74",
"H. c gray75",
"J. c #C1C1C1",
"K. c gray77",
"L. c #CBCBCB",
"P. c gray82",
"I. c #D2D2D2",
"U. c #D5D5D5",
"Y. c gray84",
"T. c #DADADA",
"R. c #DDDDDD",
"E. c #DFDFDF",
"W. c #E1E1E1",
"Q. c gray90",
"!. c #E6E6E6",
"~. c #F3F3F3",
"^. c #F4F4F4",
"/. c gray98",
"(. c #FDFDFD",
"). c white",
/* pixels */
"                                                                ",
"                          k n z n Z d R                         ",
"                    z . . 7.q.p.7.*.q.| . . /                   ",
"                Z . $ . d ;._ R d y O.X.. . . . X.              ",
"              . . > k . . . . . # . . . # . d . . .             ",
"            w r.y . . 9 w d j u d d y w 9 9 . . ] >..           ",
"          . y.-.& & w w 9 Z _ w w w w d y y 9 . z j.4..         ",
"        . a.~ . & w w 9 9 w M w d w w w 9 w d > . . a.R w       ",
"      Z 0.1.. & Z ! H N H u & w d w w w w 0 9 F d . . i.w       ",
"      z a.. . w d j i i z w 9 w d w w 9 0 w & H Z & . &.7..     ",
"    d ! R . w d w . . . . . . w d 9 . . . . . 2 z 9 & & z .     ",
"    . . . 9 w & R V.M.N.N.N.a.. 9 . 7.z.f.d.k.h.d 9 w . . . Z   ",
"  -.. . & w w 9 . L.).).).).).} . X.Q.R.Y.Y.).z.. 9 w 9 . . .   ",
"  ~ . . 9 w w d . d /.).).).).K.. n.Y.S.S.P.V.9 . w 9 & & . .   ",
"  d . . 9 w w w 9 . a.).).).).).m.Z.F.F.F.R.&.. d w 9 9 & & &   ",
"  & . . 9 w w w & . . W.).).).).).S.Z.S.T.v.. & 9 9 9 w Z N 9   ",
"  . . & 9 w w & z z . -.).).).).).R.B.J.Y.) . w & 9 w w _ ~ &   ",
"  9 . . 9 w 9 & R Z 9 . G.).).).).).G.Y.f.. 9 . d d y w Z Z 2   ",
"  Z . . 9 w w w . > d . ~ ).).).).).~.S.d . w & z d w w 9 9 >   ",
"  } h Z . w w 9 z 0 & m . v.).).).).).q.. i w w & w w w w d &   ",
"    O.r.. 9 w 9 R j : N . 9 ~.).).).!.9 # w i w 9 9 9 9 . . &   ",
"    d ;.Z . w w H d 9 9 9 . r.).).).>.. w w w w 9 . & . ] 9 ~   ",
"    Z &.7.. 9 w H d 9 9 z 9 . Y.).J.. . 9 9 & d Z 2 . d v.z     ",
"      d z.R . 9 U h > 9 z m . ;.).} . R Z Z z N d . . i.-.w     ",
"      } ! l.z . w d w w w w 9 i >.. 9 z m Z T Z . . &.j..       ",
"        . 4.1.. & w d w w w w 9 . 9 w 9 9 9 9 & . @.v..         ",
"          . & . . & 9 w w w d w d w 9 w 9 9 & . . 1.z ]         ",
"            . . . . . . . 9 q w w w 9 9 . . . . . . z           ",
"              ! . . . R ! . . . . . . . h q . . .               ",
"                  w . O.t.1.r.| | 4.w.4.-.Z . !                 ",
"                      R d o.0.#.;.r.4.| z _                     ",
"                                                                "
};
