/* XPM */
static char *e963622fad5b4aeec76eea152e4a34d4Qf5sDPVnQ2qrALtK[] = {
/* columns rows colors chars-per-pixel */
"64 64 125 2 ",
"   c None",
".  c #020202",
"X  c #080807",
"o  c #070708",
"O  c #0C0C0C",
"+  c #100F0F",
"@  c #10100F",
"#  c #121212",
"$  c #181716",
"%  c #191917",
"&  c #1C1C1B",
"*  c #201F1E",
"=  c #1F201E",
"-  c #20201F",
";  c #232323",
":  c #282826",
">  c #2C2C2B",
",  c #302F2E",
"<  c #333333",
"1  c #393936",
"2  c #3C3C3C",
"3  c #434343",
"4  c #4C4C4C",
"5  c #545454",
"6  c #5C5C5C",
"7  c #646464",
"8  c #686866",
"9  c #6B6B6B",
"0  c #737373",
"q  c #7D7D7D",
"w  c gray50",
"e  c #7A7A7A",
"r  c #808080",
"t  c #818181",
"y  c gray51",
"u  c #838383",
"i  c #868686",
"p  c gray53",
"a  c #868686",
"s  c #888888",
"d  c #898989",
"f  c gray54",
"g  c #8D8D8D",
"h  c #8F8E8E",
"j  c gray56",
"k  c #8C8C8C",
"l  c gray57",
"z  c #929292",
"x  c #939393",
"c  c #959595",
"v  c gray59",
"b  c #979797",
"n  c #949494",
"m  c #989898",
"M  c gray61",
"N  c #9D9D9D",
"B  c #9E9E9D",
"V  c gray62",
"C  c #9B9B9B",
"Z  c #A0A0A0",
"A  c #A2A2A2",
"S  c gray64",
"D  c #A5A5A5",
"F  c gray65",
"G  c #A4A4A4",
"H  c #A9A9A9",
"J  c gray67",
"K  c #ACACAC",
"L  c #AFAFAF",
"P  c #ACACAC",
"I  c gray69",
"U  c #B1B1B1",
"Y  c #B2B1B1",
"T  c gray70",
"R  c #B4B4B4",
"E  c gray71",
"W  c #B6B6B6",
"Q  c #B7B7B7",
"!  c #B2B2B2",
"~  c gray72",
"^  c #B9B9B9",
"/  c gray73",
"(  c #BCBCBC",
")  c gray74",
"_  c gray",
"`  c gray75",
"'  c gray",
"]  c gray76",
"[  c #C3C3C3",
"{  c #C5C5C5",
"}  c #C7C6C7",
"|  c gray78",
" . c #C8C8C8",
".. c #CBCBCB",
"X. c #CDCDCD",
"o. c #CECECE",
"O. c gray81",
"+. c #D0D0D0",
"@. c #D2D2D2",
"#. c gray83",
"$. c #D7D7D7",
"%. c #D8D8D8",
"&. c gray86",
"*. c #DDDDDD",
"=. c gray87",
"-. c #DFDFDF",
";. c #DADADA",
":. c gray88",
">. c #E1E1E1",
",. c #E6E6E6",
"<. c #E7E7E7",
"1. c #E4E4E4",
"2. c gray91",
"3. c #EAEAEA",
"4. c #EEEEEE",
"5. c #F1F1F1",
"6. c #F2F3F3",
"7. c #F3F3F3",
"8. c gray97",
"9. c #F4F4F4",
"0. c #F9F9F9",
"q. c #FBFBFB",
"w. c gray99",
"e. c white",
"r. c white",
/* pixels */
"                                                                                                                                ",
"                                                            & $ & ;                                                             ",
"                                                < O . . . . . . . . . . . O ;                                                   ",
"                                          ; . . . . O ; < 4 2 4 2 3 2 ; # . . . . $ 3                                           ",
"                                    4 O . . . . & q e f e V l Z 0 0 7 p p 8 2 . . . . . <                                       ",
"                                  . . . . . . . ; E u 9 4 6 4 4 ; < > 8 9 H 5 . . . . . . . >                                   ",
"                              $ . . . O o . . . o < $ O . . . . . . . . O 4 % . . . . o O . . .                                 ",
"                            . . . . . 6 & . . . . . . . . o . o o o o . . . . . . . . < 5 . . . . ;                             ",
"                        ; . . . . . . . . o O X X o o o o . o o . o . o o o o o O . . . o . . . . . o                           ",
"                      o . < & . . . . . X o o O o O O @ # # O # O # # @ O o o . o o O . . . . . . $ . .                         ",
"                    # . & w V ; . . O O o o X O @ # @ O O O @ O # O O # # # # + O . . o O . . . 4 v > . .                       ",
"                  . . > I 0 e ; o O o . X @ O O O O % < $ O O O O O O @ # # @ # @ @ O . . O . . 7 p v 4 . .                     ",
"                = . 4 6 7 9 . . O . X @ O O @ O O O $ 2 & O O @ O O + @ @ + O O @ + @ O o . o o . 4 m 0 5 . .                   ",
"              3 . 3 5 5 > . . o . O # O O O O O O O @ < ; O O O O # + + @ O O O O O @ @ + O . o . . < l Z < . .                 ",
"              . O v V ; O . o . O O O O O O O O O O @ @ O O O O O O + # + O O O O O O O O # O . . . . 5 e 6 , . >               ",
"            . . u 0 7 O . o . @ O O o O O O O X o O @ O O # # # # @ O @ # O O O O O O O O O o @ . o . . < 6 6 . .               ",
"          2 . 4 p f o . o . O O : > % < % > ; O : $ O O @ @ O O O # # O # O O O O O O O X % - O O . o . # 3 9 8 . .             ",
"          . ; Z v & . O . O O @ > $ - & $ > @ - < @ O + # O O O O O # @ O O O O O O O O X @ 1 - O O . o . % D u & . 3           ",
"        > . 2 f 8 . o . X O O O O o O o O X X @ O O O O + O # # O # O # O O O O O + # O O O % # O @ o . . . 3 m q . .           ",
"        . < > 5 $ . O . # O O O O O O O X O @ O O O O O O # O O O # # # O O O O O O O O o $ < $ O O O . o . ; 0 & . . 3         ",
"      2 . < f 5 . o . O O O O O O o o o X X X o o o o o @ @ O O O # # O o o X o O o o X O . % & o O O O . O . . . . . o         ",
"      o . . . O . o . @ O O O O @ . . . . . . . . . . . . @ + # + O @ . . . . . . . . . . O % O O O O O . o o . . . . .         ",
"      . . . . . O . O O O @ O . < $.{  . .{ { {  . . .{ 4 . O O O # . 2 H n l l l l l l l V Y : . O O O O . O . . . . . <       ",
"    < . . . . o o . $ O O O O O o %.e.e.e.e.e.e.e.e.e.e.,.. O O @ o o Y 2.+.+.+.+.+.+.+.X.7.h . o O O O @ . o . . . . . .       ",
"    O . . . . X o O O O @ O O @ . & e.e.e.e.e.e.e.e.e.e.e.q . O O . 8 :.Q ~ ~ ( ~ ~ ( ~  .{ > . O O O O O O o X . . . . .       ",
"    . . . . . o . O O O O O O O O . l e.e.e.e.e.e.e.e.e.e.q.$ o . $ {  .Q ~ ~ ~ ~ ( ~ ~ *.8 . # O O O O O O . O . . . . . 3     ",
"    . . . . o X . @ O O O O O O O . O 4.e.e.e.e.e.e.e.e.e.e.D . . r *.Q ~ ( ~ ( ~ ~ ~ #.H . . O O O O O o o . . . . . . . ;     ",
"  2 . . . . o . o # O O O O O O O O . 7 e.e.e.e.e.e.e.e.e.e.e.% O $.` ~ ~ ~ ~ ~ ~ ~ ( %.2 . O O O O O O O . o O . . . . . O     ",
"  > . . . . o . o O O O O O O O O O o . +.e.e.e.e.e.e.e.e.e.e.[ u o.~ ~ ~ ~ ~ ( ~ E *.h . O O O O O O X O X O O X o o O . .     ",
"  & . . . . o o O O O O O O O O o o X . < e.e.e.e.e.e.e.e.e.e.e.:.D ( ~ ( ~ ~ ~ ~ [ X.; . O O O O O X O O O @ O O O O # . .     ",
"  O . . . . o o O O O O O # O o o X O O . Y e.e.e.e.e.e.e.e.e.e.q.T T ~ ( ~ ~ ( E :.0 . O O O O O X X O O O O $ & & O O . .     ",
"  O . . . . o . O O O O O O O O o O O O . & e.e.e.e.e.e.e.e.e.e.e.*.H ( ~ ~ ~ ~ X.` O . O O O O o o o O O O O % > : # O . .     ",
"  O . . . . X . O O O O O O o O O O O O O . u e.e.e.e.e.e.e.e.e.e.e.( Y ( ~ ~ ( :.5 . O O O O . O o O O O O O # ; & @ O . .     ",
"  O . . . . O o O @ O O . o . # < < O O O o . ,.e.e.e.e.e.e.e.e.e.e.2.J ~ ~ ~ #.Z . o O O O o O o O @ O O O O $ > : @ O . .     ",
"  % . . . . o . O O O # . . o O ; & O O O O . 5 e.e.e.e.e.e.e.e.e.e.e. .P ~ ) $.< . O O O O . o O O O O O O O $ : ; @ O . .     ",
"  > . . . . o o O O O O O O O O O o O O O O O . X.e.e.e.e.e.e.e.e.e.e.7.I E *.f . O O @ @ o . $ < @ O O O O O O X X O @ . .     ",
"  3 . . . . o . . # O O O O O O O # O O O O O . < e.e.e.e.e.e.e.e.e.e.e.#.E X.- . O O O O o X O $ O O O O O O O O O O O . o     ",
"    . . . . . o . @ O O O O O O . . O O O O o O . V e.e.e.e.e.e.e.e.e.e.w.:.7 . O O O O O O O o X O O O O O O O O O O # . &     ",
"    . . . & o . o O O O O O O # : o . o O @ % O o # 8.e.e.e.e.e.e.e.e.e.e.:.. . @ O O O O O o O O O O O O O O O O O O O . 3     ",
"    . $ 9 h & . o O O O O O O o > : . . . ; < X O . 0 e.e.e.e.e.e.e.e.e.e.9 . O O O O O O O O O O O O O O O @ O O # O O .       ",
"    & O e h 3 . o . # O O O O # % @ O O X # # O + o . :.e.e.e.e.e.e.e.e.%.. o O O O O O O @ O O o O X o # o o o o o o o .       ",
"      . 6 q 4 O . . O O O @ o % 1 O O O O O O O O O . 4 e.e.e.e.e.e.e.e.2 . O O O + O O O O O O O O . o @ . . . . . . . %       ",
"      . # . 7 2 . o . # O @ O O - $ X O O O O O O O o . ( e.e.e.e.e.e.Y . O O O O O O O @ O O X . . . # . o . & 2 o . .         ",
"      > . 5 u 5 . o . O O O O - ; X O O + O O O O O O . ; e.e.e.e.e.e.& . O O O O O O @ O O O $ O . O O . o . 7 D 0 . .         ",
"        . 2 f l O . o . # O O # < $ o O O O O O O o O O . m e.e.e.e.f . O O O O O @ O O O O @ 2 ; X @ . o . $ e Z 6 . 3         ",
"        O . 0 e 8 O . . o @ o $ & O O O O O O O : - O @ o O 6.e.e.4.. o O o X O O O O O O o + * O O O . o . 6 e 9 O .           ",
"          . ; l Z < . o . O O % 1 $ o O O O O O ; & O O @ . 8 e.e.6 . O O ; > X % $ o @ o # @ . O O . X . < p v > . 3           ",
"          < . 9 5 q : . O . O O % $ O O O O O O o O # # O O . e.4.. O O # , & * < - > - % 1 # O O . O . # 8 f p o .             ",
"            . . f p 8 O . o . O O o O O O O O O O O # O O + . 8 4 . @ @ O O . $ O # > O ; & O O . o . . 0 l 9 $ .               ",
"              . > e p 9 # o o . O O O O O O @ O O # O # + + O . . # @ @ @ O O O O O o O X o O . o . . 6 e h 2 . &               ",
"              < . 4 D V < . O O . O O O O O O O O + # O + + # O O + + + + O O O O O O O @ O . o o . 3 l v 2 . .                 ",
"                O . 8 4 . . . o O o o O @ O O O O O # # @ @ O O + O + + @ + O O O O O O o . O o . 5 h e 5 . .                   ",
"                  O . . . . . . . O O . O # O O O # # @ O O O O O O # @ @ O O O + @ O . o O . . . ; k 6 . .                     ",
"                    . . . . . . . . O O . . O O # # # # # O O O O O O # # @ $ O X . o O O . . . . . % o .                       ",
"                      O . . . . . . . . O O o o o O O O # # # @ # # # + O X o . o O X . . . . . . . . .                         ",
"                        $ . . . . . . . . . . . o o o . o . o . . o . o o o o O . . . . . . . . . . .                           ",
"                          < . . . . . . . . O % . . . . o . o o o o o o . . . . @ . . . . . . . . &                             ",
"                              O . . . . . . 9 p > & . o . . . . . . . . . o > O 4 4 . . . . . . 2                               ",
"                                2 . . . . $ J 7 5 4 5 0 5 4 ; = , 4 4 6 9 8 6 5 $ v & . . . ;                                   ",
"                                    ; o . . 3 & 5 9 p h m e 6 6 9 A g v p m 2 9 $ ; . . %                                       ",
"                                          $ . . . O 2 2 6 3 1 6 5 9 5 6 < 2 . . . . ;                                           ",
"                                                # . . . . . . . . . . . . . $ ;                                                 ",
"                                                            $ & O %                                                             ",
"                                                                                                                                "
};
